<svg width="225" height="79" viewBox="0 0 225 79" fill="none" xmlns="http://www.w3.org/2000/svg">
<g clip-path="url(#clip0_1_370)">
<path d="M23.8278 20.5218C26.4165 20.5218 28.5345 20.914 30.1819 21.6985C31.8685 22.4437 33.3589 23.3262 34.6533 24.346C35.4377 24.9343 36.0261 25.0128 36.4183 24.5813C36.8498 24.1107 37.1439 23.032 37.3008 21.3455H38.654C38.5756 22.8751 38.5167 24.7578 38.4775 26.9935C38.4383 29.2292 38.4187 32.1709 38.4187 35.8186H37.0655C36.9086 33.9752 36.6536 32.367 36.3006 30.9942C35.9869 29.6214 35.5162 28.4055 34.8886 27.3465C34.2611 26.2875 33.3589 25.3462 32.1823 24.5225C31.2801 23.7773 30.2603 23.2085 29.1229 22.8163C28.0246 22.3849 26.8872 22.1691 25.7105 22.1691C23.5533 22.1691 21.7294 22.7771 20.2389 23.993C18.7877 25.1697 17.611 26.7386 16.7089 28.6997C15.846 30.6216 15.2184 32.7789 14.8262 35.1715C14.4732 37.5248 14.2967 39.8978 14.2967 42.2904C14.2967 44.7222 14.4928 47.1344 14.885 49.527C15.2773 51.8804 15.9048 54.018 16.7677 55.9399C17.6698 57.8618 18.8661 59.4111 20.3566 60.5878C21.8471 61.7253 23.6709 62.294 25.8282 62.294C26.9656 62.294 28.0835 62.0979 29.1817 61.7056C30.3192 61.3134 31.339 60.7447 32.2411 59.9995C33.9669 58.8228 35.124 57.2931 35.7123 55.4104C36.3399 53.4885 36.7909 50.9978 37.0655 47.9385H38.4187C38.4187 51.7431 38.4383 54.8221 38.4775 57.1754C38.5167 59.4896 38.5756 61.4311 38.654 63H37.3008C37.1439 61.3134 36.8694 60.2544 36.4771 59.823C36.1241 59.3915 35.5162 59.4503 34.6533 59.9995C33.202 61.0193 31.6527 61.9214 30.0054 62.7058C28.3973 63.4511 26.3185 63.8237 23.769 63.8237C19.4937 63.8237 15.7283 62.9804 12.4728 61.2938C9.25657 59.6072 6.74631 57.1754 4.94206 53.9984C3.17704 50.8213 2.29453 46.9971 2.29453 42.5257C2.29453 38.1328 3.21626 34.289 5.05973 30.9942C6.9032 27.6995 9.43307 25.1304 12.6493 23.287C15.9048 21.4435 19.631 20.5218 23.8278 20.5218ZM53.653 16.8741V57.5284C53.653 59.1758 53.9668 60.2936 54.5944 60.882C55.2612 61.4703 56.3594 61.7645 57.8891 61.7645V63C57.2223 62.9608 56.1829 62.9216 54.7709 62.8823C53.3589 62.8039 51.9468 62.7647 50.5348 62.7647C49.1228 62.7647 47.6912 62.8039 46.2399 62.8823C44.8279 62.9216 43.7689 62.9608 43.0629 63V61.7645C44.5926 61.7645 45.6712 61.4703 46.2988 60.882C46.9655 60.2936 47.2989 59.1758 47.2989 57.5284V23.9342C47.2989 22.1691 47.0048 20.8748 46.4164 20.0511C45.8281 19.1882 44.7102 18.7568 43.0629 18.7568V17.5212C44.318 17.6389 45.5339 17.6977 46.7106 17.6977C48.005 17.6977 49.2405 17.6389 50.4171 17.5212C51.5938 17.3643 52.6725 17.1486 53.653 16.8741ZM69.0055 63.4118C67.3582 63.4118 65.9461 63.0981 64.7694 62.4705C63.5928 61.8429 62.7103 60.98 62.1219 59.8818C61.5336 58.7836 61.2394 57.5284 61.2394 56.1164C61.2394 54.3906 61.6316 52.9982 62.4161 51.9392C63.2005 50.841 64.2007 49.9584 65.4166 49.2917C66.6718 48.6249 67.9857 48.0757 69.3585 47.6443C70.7705 47.1736 72.0845 46.7422 73.3004 46.3499C74.5555 45.9185 75.5753 45.4282 76.3598 44.8791C77.1834 44.33 77.5953 43.6044 77.5953 42.7022V38.7015C77.5953 37.2895 77.3599 36.1716 76.8893 35.348C76.4578 34.4851 75.8499 33.8771 75.0654 33.5241C74.3202 33.1711 73.4181 32.9946 72.359 32.9946C71.4569 32.9946 70.496 33.1319 69.4762 33.4064C68.4564 33.6418 67.6523 34.1321 67.064 34.8773C67.9269 35.1126 68.6329 35.5833 69.182 36.2893C69.7703 36.9561 70.0645 37.7994 70.0645 38.8192C70.0645 39.9174 69.6919 40.7803 68.9467 41.4079C68.2407 42.0354 67.3385 42.3492 66.2403 42.3492C65.0244 42.3492 64.1223 41.9766 63.5339 41.2314C62.9456 40.4469 62.6514 39.5448 62.6514 38.525C62.6514 37.466 62.9064 36.6031 63.4163 35.9363C63.9654 35.2695 64.6714 34.642 65.5343 34.0536C66.4756 33.4261 67.6719 32.8965 69.1232 32.4651C70.6136 32.0336 72.261 31.8179 74.0652 31.8179C75.7518 31.8179 77.2031 32.014 78.419 32.4063C79.6741 32.7593 80.7135 33.3476 81.5372 34.1713C82.5177 35.0734 83.1649 36.2109 83.4787 37.5837C83.7925 38.9172 83.9494 40.545 83.9494 42.4669V58.7051C83.9494 59.6857 84.067 60.3917 84.3024 60.8231C84.5769 61.2154 85.0084 61.4115 85.5967 61.4115C85.989 61.4115 86.3616 61.3134 86.7146 61.1173C87.1068 60.9212 87.5579 60.627 88.0678 60.2348L88.6561 61.235C87.8324 61.9018 86.9891 62.4313 86.1262 62.8235C85.3026 63.2157 84.2435 63.4118 82.9492 63.4118C81.6941 63.4118 80.6743 63.2157 79.8898 62.8235C79.1054 62.4313 78.517 61.8625 78.1248 61.1173C77.7718 60.3721 77.5953 59.4503 77.5953 58.3521C76.5755 59.9995 75.3596 61.2546 73.9476 62.1175C72.5356 62.9804 70.8882 63.4118 69.0055 63.4118ZM71.8295 60.5878C72.9278 60.5878 73.9476 60.274 74.8889 59.6465C75.8695 59.0189 76.7716 58.0775 77.5953 56.8224V45.1144C77.1638 45.742 76.5363 46.2911 75.7126 46.7618C74.8889 47.1932 74.0064 47.6443 73.0651 48.115C72.1237 48.5856 71.2216 49.1348 70.3587 49.7623C69.535 50.3507 68.8486 51.1155 68.2995 52.0569C67.7504 52.9982 67.4758 54.1945 67.4758 55.6457C67.4758 57.1754 67.868 58.3913 68.6525 59.2935C69.437 60.1564 70.496 60.5878 71.8295 60.5878ZM101.357 31.8179C102.926 31.8179 104.279 32.0729 105.417 32.5828C106.594 33.0534 107.437 33.4849 107.947 33.8771C109.241 34.8969 110.045 34.2301 110.359 31.8768H111.653C111.575 32.975 111.516 34.3086 111.477 35.8775C111.438 37.4072 111.418 39.4467 111.418 41.9962H110.124C109.888 40.545 109.476 39.133 108.888 37.7602C108.339 36.3874 107.515 35.2499 106.417 34.3478C105.358 33.4457 103.966 32.9946 102.24 32.9946C100.946 32.9946 99.8669 33.3672 99.004 34.1125C98.1411 34.8185 97.7097 35.8775 97.7097 37.2895C97.7097 38.4662 98.0627 39.486 98.7687 40.3489C99.4747 41.2118 100.377 42.0158 101.475 42.7611C102.612 43.5063 103.828 44.3104 105.123 45.1733C106.574 46.1538 107.868 47.1344 109.006 48.115C110.182 49.0563 111.104 50.1153 111.771 51.292C112.477 52.4687 112.83 53.8415 112.83 55.4104C112.83 57.2146 112.34 58.7443 111.359 59.9995C110.418 61.2546 109.163 62.2155 107.594 62.8823C106.025 63.5099 104.299 63.8237 102.416 63.8237C101.475 63.8237 100.593 63.7256 99.7688 63.5295C98.9452 63.3726 98.1803 63.1569 97.4743 62.8823C97.0429 62.647 96.6114 62.4117 96.18 62.1763C95.7877 61.9018 95.3955 61.6468 95.0033 61.4115C94.6111 61.1369 94.2581 61.1761 93.9443 61.5291C93.6305 61.8822 93.3952 62.5097 93.2383 63.4118H91.9439C92.0224 62.1567 92.0812 60.627 92.1204 58.8228C92.1596 57.0185 92.1793 54.6259 92.1793 51.645H93.4736C93.7482 53.8023 94.16 55.7046 94.7091 57.3519C95.2582 58.9993 96.0623 60.2936 97.1213 61.235C98.2196 62.1371 99.71 62.5882 101.593 62.5882C102.338 62.5882 103.083 62.4313 103.828 62.1175C104.574 61.7645 105.182 61.2154 105.652 60.4701C106.162 59.7249 106.417 58.7247 106.417 57.4696C106.417 55.7438 105.809 54.3318 104.593 53.2335C103.417 52.0961 101.887 50.8998 100.004 49.6447C98.6706 48.7033 97.3959 47.7816 96.18 46.8795C95.0033 45.9381 94.0423 44.8987 93.2971 43.7612C92.5519 42.5846 92.1793 41.1922 92.1793 39.584C92.1793 37.819 92.5911 36.3678 93.4148 35.2303C94.2777 34.0928 95.4151 33.2496 96.8271 32.7004C98.2392 32.1121 99.7492 31.8179 101.357 31.8179ZM127.959 31.8179C129.528 31.8179 130.881 32.0729 132.019 32.5828C133.195 33.0534 134.039 33.4849 134.549 33.8771C135.843 34.8969 136.647 34.2301 136.961 31.8768H138.255C138.177 32.975 138.118 34.3086 138.079 35.8775C138.039 37.4072 138.02 39.4467 138.02 41.9962H136.725C136.49 40.545 136.078 39.133 135.49 37.7602C134.941 36.3874 134.117 35.2499 133.019 34.3478C131.96 33.4457 130.567 32.9946 128.842 32.9946C127.547 32.9946 126.469 33.3672 125.606 34.1125C124.743 34.8185 124.311 35.8775 124.311 37.2895C124.311 38.4662 124.664 39.486 125.37 40.3489C126.076 41.2118 126.979 42.0158 128.077 42.7611C129.214 43.5063 130.43 44.3104 131.724 45.1733C133.176 46.1538 134.47 47.1344 135.608 48.115C136.784 49.0563 137.706 50.1153 138.373 51.292C139.079 52.4687 139.432 53.8415 139.432 55.4104C139.432 57.2146 138.941 58.7443 137.961 59.9995C137.02 61.2546 135.764 62.2155 134.196 62.8823C132.627 63.5099 130.901 63.8237 129.018 63.8237C128.077 63.8237 127.194 63.7256 126.371 63.5295C125.547 63.3726 124.782 63.1569 124.076 62.8823C123.645 62.647 123.213 62.4117 122.782 62.1763C122.389 61.9018 121.997 61.6468 121.605 61.4115C121.213 61.1369 120.86 61.1761 120.546 61.5291C120.232 61.8822 119.997 62.5097 119.84 63.4118H118.546C118.624 62.1567 118.683 60.627 118.722 58.8228C118.761 57.0185 118.781 54.6259 118.781 51.645H120.075C120.35 53.8023 120.762 55.7046 121.311 57.3519C121.86 58.9993 122.664 60.2936 123.723 61.235C124.821 62.1371 126.312 62.5882 128.194 62.5882C128.94 62.5882 129.685 62.4313 130.43 62.1175C131.175 61.7645 131.783 61.2154 132.254 60.4701C132.764 59.7249 133.019 58.7247 133.019 57.4696C133.019 55.7438 132.411 54.3318 131.195 53.2335C130.018 52.0961 128.489 50.8998 126.606 49.6447C125.272 48.7033 123.998 47.7816 122.782 46.8795C121.605 45.9381 120.644 44.8987 119.899 43.7612C119.154 42.5846 118.781 41.1922 118.781 39.584C118.781 37.819 119.193 36.3678 120.017 35.2303C120.879 34.0928 122.017 33.2496 123.429 32.7004C124.841 32.1121 126.351 31.8179 127.959 31.8179ZM150.678 17.8154C151.894 17.8154 152.914 18.2076 153.737 18.9921C154.561 19.7373 154.973 20.6787 154.973 21.8161C154.973 22.9536 154.561 23.9145 153.737 24.699C152.914 25.4442 151.894 25.8168 150.678 25.8168C149.462 25.8168 148.442 25.4442 147.618 24.699C146.795 23.9145 146.383 22.9536 146.383 21.8161C146.383 20.6787 146.795 19.7373 147.618 18.9921C148.442 18.2076 149.462 17.8154 150.678 17.8154ZM154.208 31.9944V57.5284C154.208 59.1758 154.522 60.2936 155.149 60.882C155.816 61.4703 156.914 61.7645 158.444 61.7645V63C157.777 62.9608 156.738 62.9216 155.326 62.8823C153.953 62.8039 152.541 62.7647 151.09 62.7647C149.717 62.7647 148.305 62.8039 146.854 62.8823C145.402 62.9216 144.324 62.9608 143.618 63V61.7645C145.147 61.7645 146.226 61.4703 146.854 60.882C147.52 60.2936 147.854 59.1758 147.854 57.5284V39.0545C147.854 37.2895 147.56 35.9951 146.971 35.1715C146.383 34.3086 145.265 33.8771 143.618 33.8771V32.6416C144.873 32.7593 146.089 32.8181 147.265 32.8181C148.599 32.8181 149.835 32.7593 150.972 32.6416C152.149 32.4847 153.227 32.269 154.208 31.9944ZM172.141 32.7004V33.936C171.396 33.936 170.768 34.1125 170.258 34.4655C169.748 34.8185 169.689 35.3087 170.082 35.9363L185.79 58.8228C186.457 59.8033 187.045 60.5094 187.555 60.9408C188.065 61.333 188.693 61.6076 189.438 61.7645V63C189.046 62.9608 188.438 62.9216 187.614 62.8823C186.83 62.8039 186.045 62.7647 185.261 62.7647C184.045 62.7647 182.731 62.8039 181.319 62.8823C179.946 62.9216 178.946 62.9608 178.318 63V61.7645C179.103 61.7645 179.75 61.588 180.26 61.235C180.77 60.8427 180.809 60.3525 180.378 59.7641L164.669 36.8777C163.884 35.7402 163.257 34.995 162.786 34.642C162.315 34.2497 161.727 34.0144 161.021 33.936V32.7004C161.413 32.7397 162.021 32.7985 162.845 32.8769C163.669 32.9162 164.453 32.9358 165.198 32.9358C166.453 32.9358 167.767 32.9162 169.14 32.8769C170.513 32.7985 171.513 32.7397 172.141 32.7004ZM173.729 47.6443C173.729 47.6443 173.769 47.7816 173.847 48.0561C173.925 48.2915 174.004 48.5464 174.082 48.821C174.2 49.0955 174.259 49.2328 174.259 49.2328L169.376 55.5869C168.356 56.9205 167.807 58.0383 167.728 58.9404C167.689 59.8426 168.062 60.529 168.846 60.9996C169.631 61.4311 170.709 61.7056 172.082 61.8233V63C171.415 62.9608 170.67 62.9412 169.846 62.9412C169.023 62.9019 168.218 62.8823 167.434 62.8823C166.689 62.8431 166.002 62.8235 165.375 62.8235C164.473 62.8235 163.649 62.8431 162.904 62.8823C162.198 62.8823 161.531 62.9216 160.903 63V61.8233C161.649 61.7449 162.414 61.4115 163.198 60.8231C164.022 60.1956 164.983 59.1562 166.081 57.7049L173.729 47.6443ZM188.261 32.7004V33.8771C187.516 33.9556 186.692 34.3478 185.79 35.0538C184.927 35.7206 184.025 36.7012 183.084 37.9955L176.318 47.3501C176.318 47.3501 176.279 47.2325 176.2 46.9971C176.122 46.7226 176.043 46.4676 175.965 46.2323C175.887 45.9577 175.847 45.8204 175.847 45.8204L180.436 39.4075C181.299 38.1916 181.848 37.1914 182.084 36.407C182.319 35.6225 182.182 35.0342 181.672 34.642C181.201 34.2105 180.26 33.9556 178.848 33.8771V32.7004C179.868 32.7397 180.711 32.7789 181.378 32.8181C182.084 32.8573 182.888 32.8769 183.79 32.8769C184.692 32.8769 185.496 32.8573 186.202 32.8181C186.947 32.7789 187.634 32.7397 188.261 32.7004ZM208.533 27.3465V41.2314H222.182V42.9964H208.533V56.8224H206.415V42.9964H192.707V41.2314H206.415V27.3465H208.533Z" fill="white"/>
</g>
<defs>
<clipPath id="clip0_1_370">
<rect width="224.949" height="79" fill="white"/>
</clipPath>
</defs>
</svg>
